<svg id="visual" viewBox="0 0 900 600" width="900" height="600" xmlns="http://www.w3.org/2000/svg" xmlns:xlink="http://www.w3.org/1999/xlink" version="1.1"><rect x="0" y="0" width="900" height="600" fill="#3DFDD8"></rect><path d="M0 366L15 361.7C30 357.3 60 348.7 90 330.7C120 312.7 150 285.3 180 273C210 260.7 240 263.3 270 281.2C300 299 330 332 360 344.5C390 357 420 349 450 348.2C480 347.3 510 353.7 540 350.7C570 347.7 600 335.3 630 337.2C660 339 690 355 720 353.8C750 352.7 780 334.3 810 323.3C840 312.3 870 308.7 885 306.8L900 305L900 601L885 601C870 601 840 601 810 601C780 601 750 601 720 601C690 601 660 601 630 601C600 601 570 601 540 601C510 601 480 601 450 601C420 601 390 601 360 601C330 601 300 601 270 601C240 601 210 601 180 601C150 601 120 601 90 601C60 601 30 601 15 601L0 601Z" fill="#3679e3"></path><path d="M0 339L15 348.3C30 357.7 60 376.3 90 380.3C120 384.3 150 373.7 180 376.8C210 380 240 397 270 395.2C300 393.3 330 372.7 360 370C390 367.3 420 382.7 450 382C480 381.3 510 364.7 540 355C570 345.3 600 342.7 630 342.3C660 342 690 344 720 356.2C750 368.3 780 390.7 810 402.2C840 413.7 870 414.3 885 414.7L900 415L900 601L885 601C870 601 840 601 810 601C780 601 750 601 720 601C690 601 660 601 630 601C600 601 570 601 540 601C510 601 480 601 450 601C420 601 390 601 360 601C330 601 300 601 270 601C240 601 210 601 180 601C150 601 120 601 90 601C60 601 30 601 15 601L0 601Z" fill="#009cef"></path><path d="M0 451L15 450C30 449 60 447 90 443.8C120 440.7 150 436.3 180 435.3C210 434.3 240 436.7 270 440.7C300 444.7 330 450.3 360 455.5C390 460.7 420 465.3 450 457.3C480 449.3 510 428.7 540 421.7C570 414.7 600 421.3 630 433.8C660 446.3 690 464.7 720 472.8C750 481 780 479 810 472.7C840 466.3 870 455.7 885 450.3L900 445L900 601L885 601C870 601 840 601 810 601C780 601 750 601 720 601C690 601 660 601 630 601C600 601 570 601 540 601C510 601 480 601 450 601C420 601 390 601 360 601C330 601 300 601 270 601C240 601 210 601 180 601C150 601 120 601 90 601C60 601 30 601 15 601L0 601Z" fill="#00bbef"></path><path d="M0 514L15 513C30 512 60 510 90 512C120 514 150 520 180 520.7C210 521.3 240 516.7 270 509.2C300 501.7 330 491.3 360 489.8C390 488.3 420 495.7 450 495C480 494.3 510 485.7 540 490.5C570 495.3 600 513.7 630 525.2C660 536.7 690 541.3 720 532.3C750 523.3 780 500.7 810 491.7C840 482.7 870 487.3 885 489.7L900 492L900 601L885 601C870 601 840 601 810 601C780 601 750 601 720 601C690 601 660 601 630 601C600 601 570 601 540 601C510 601 480 601 450 601C420 601 390 601 360 601C330 601 300 601 270 601C240 601 210 601 180 601C150 601 120 601 90 601C60 601 30 601 15 601L0 601Z" fill="#36d5e3"></path></svg>